<?xml version="1.0" encoding="UTF-8"?><!DOCTYPE svg PUBLIC "-//W3C//DTD SVG 1.1//EN" "http://www.w3.org/Graphics/SVG/1.1/DTD/svg11.dtd"><svg xmlns="http://www.w3.org/2000/svg"><symbol id="icon-boat" viewBox="0 0 508.52 508.52">
    <path d="M434.065 74.466C384.389 24.822 319.331 0 254.272 0S124.091 24.822 74.478 74.466c-99.288 99.288-99.288 260.298 0 359.587 49.644 49.644 114.735 74.466 179.793 74.466s130.181-24.822 179.793-74.466c99.258-99.288 99.258-260.298.001-359.587zM254.272 31.782c34.706 0 68.11 8.105 98.303 23.042l-49.04 49.04c-16.018-5.244-32.577-8.518-49.263-8.518-15.224 0-30.225 2.892-44.94 7.215L159.72 52.98c29.239-13.697 61.307-21.198 94.552-21.198zM54.837 352.595c-14.938-30.225-23.042-63.629-23.042-98.335 0-33.244 7.469-65.281 21.231-94.489l49.612 49.581c-9.09 30.829-8.677 63.565 1.271 94.203l-49.072 49.04zm199.435 124.142c-31.814 0-62.484-6.833-90.707-19.419l50.089-50.089c13.317 3.528 26.888 5.975 40.586 5.975 15.224 0 30.225-2.892 44.94-7.278l49.612 49.612c-29.239 13.699-61.276 21.199-94.52 21.199zm89.881-132.596c-23.996 24.028-55.969 37.249-89.881 37.249s-65.885-13.222-89.881-37.249c-24.028-23.996-37.249-55.937-37.249-89.881s13.222-65.885 37.249-89.881c23.996-24.028 55.937-37.249 89.881-37.249 33.912 0 65.885 13.222 89.881 37.249 24.028 23.996 37.249 55.937 37.249 89.881s-13.222 65.885-37.249 89.881zm61.785-44.941c8.263-27.937 8.677-57.399 1.271-85.527l49.994-49.994c26.125 58.829 25.553 126.59-1.812 185.006L405.938 299.2z"/>
</symbol><symbol id="icon-cart" viewBox="0 0 508.169 508.169">
    <path d="M123.38 316.728l-7.278 32.704H456.81c8.74 0 15.891 7.151 15.891 15.891s-7.151 15.891-15.891 15.891H96.269c-4.831 0-9.376-2.161-12.395-5.975-3.019-3.719-4.164-8.645-3.115-13.349l16.177-72.814-.667-3.21L68.65 147.804 48.913 63.39H15.891C7.087 63.39 0 56.27 0 47.499s7.119-15.891 15.891-15.891h45.608a15.881 15.881 0 0 1 15.478 12.268l12.332 52.695 6.96-1.398h381.39c17.607 0 37.249 11.918 28.255 40.3l-51.583 158.34c-8.454 20.373-19.069 23.837-36.55 23.837H128.052l-4.672-.922zm4.672 96.269c-17.544 0-31.782 14.239-31.782 31.782 0 17.544 14.239 31.782 31.782 31.782s31.782-14.239 31.782-31.782-14.238-31.782-31.782-31.782zm286.042 0c-17.576 0-31.783 14.239-31.783 31.782 0 17.544 14.207 31.782 31.783 31.782 17.512 0 31.782-14.239 31.782-31.782s-14.27-31.782-31.782-31.782z"/>
</symbol><symbol id="icon-vimeo" viewBox="0 0 508.537 508.537">
    <path d="M291.7 151.834c58.067-34.865 89.15 14.175 59.338 69.699-29.685 55.492-56.795 91.661-70.97 91.661s-25.076-37.122-41.317-102.022c-16.781-67.093-16.686-187.93-86.48-174.232C86.48 49.876 0 153.137 0 153.137l20.659 27.079s42.589-33.562 56.795-16.781c14.175 16.781 68.364 219.458 86.48 256.866 15.796 32.736 59.338 76.151 107.139 45.195 47.737-31.02 206.491-166.477 234.936-326.565C534.391-21.094 314.964 12.436 291.7 151.834z"/>
</symbol><symbol id="icon-youtube" viewBox="0 0 508.492 508.492">
    <path d="M504.15 158.24c-2.829-33.848-23.011-76.532-64.487-78.058-115.815-7.787-253.02-9.916-370.933 0-36.582 4.1-61.658 48.659-64.391 82.507-5.784 71.097-5.784 111.557 0 182.654 2.765 33.848 27.206 78.662 64.455 83.365 119.311 7.787 255.849 8.899 370.933 0 36.105-6.261 61.69-49.517 64.455-83.365 5.752-71.129 5.752-116.006-.032-187.103zM190.647 344.199V161.926l158.912 91.152-158.912 91.121z"/>
</symbol></svg>