<svg xmlns="http://www.w3.org/2000/svg" width="60" height="60" viewBox="0 0 60 60">
  <defs>
    <style>
      .cls-1 {
        fill: #2cc7c1;
        fill-rule: evenodd;
        opacity: 0.7;
      }
    </style>
  </defs>
  <path id="Play-circle" class="cls-1" d="M514,2834a30,30,0,1,0,30,30A30.009,30.009,0,0,0,514,2834Zm15,32.15-21.25,12.5a2.464,2.464,0,0,1-1.25.35,2.889,2.889,0,0,1-1.25-.31,2.545,2.545,0,0,1-1.25-2.19v-25a2.545,2.545,0,0,1,1.25-2.19,2.483,2.483,0,0,1,2.5.04l21.25,12.5A2.474,2.474,0,0,1,529,2866.15Z" transform="translate(-484 -2834)"/>
</svg>
